Coordinates
version=1
nRows=27
nColumns=12
inDegrees=yes

Units are S.I. units (second, meters, Newtons, ...)
Angles are in degrees

endheader
time	SC_y	SC_z	SC_x	AC_y	AC_z	AC_x	GH_y	GH_z	GH_yy	EL_x	PS_y
       0.0              -27.46          22.98          38.45          49.91         -2.256         -12.79          -79.5          82.74          169.0          88.06          154.3
   0.02701              -27.46          22.98          38.44          49.91         -2.255         -12.78         -79.49          82.74          169.0          88.05          154.3
   0.05402              -27.47          22.98          38.44          49.91         -2.254         -12.78         -79.48          82.74          169.0          88.04          154.3
   0.08102              -27.47          22.98          38.43          49.91         -2.253         -12.78         -79.47          82.74          168.9          88.02          154.3
     0.108              -27.48          22.99          38.43          49.91         -2.252         -12.78         -79.45          82.73          168.9          88.01          154.3
     0.135              -27.48          22.99          38.42          49.91         -2.251         -12.77         -79.44          82.73          168.8           88.0          154.2
     0.162              -27.49          22.99          38.42           49.9          -2.25         -12.77         -79.42          82.73          168.8          87.98          154.2
    0.1891               -27.5          22.99          38.41           49.9         -2.249         -12.77         -79.41          82.73          168.7          87.97          154.2
    0.2161               -27.5           23.0          38.41           49.9         -2.248         -12.76         -79.39          82.73          168.7          87.95          154.2
    0.2431              -27.51           23.0           38.4           49.9         -2.246         -12.76         -79.37          82.73          168.6          87.93          154.1
    0.2701              -27.52           23.0          38.39           49.9         -2.245         -12.76         -79.35          82.73          168.6          87.92          154.1
    0.2971              -27.53           23.0          38.39          49.89         -2.243         -12.75         -79.33          82.72          168.5          87.89          154.1
    0.3241              -27.54          23.01          38.38          49.89         -2.241         -12.75          -79.3          82.72          168.4          87.87          154.1
    0.3511              -27.55          23.01          38.37          49.89          -2.24         -12.74         -79.28          82.72          168.3          87.85          154.0
    0.3781              -27.56          23.01          38.36          49.89         -2.238         -12.74         -79.25          82.72          168.2          87.82          154.0
    0.4051              -27.57          23.02          38.35          49.88         -2.236         -12.73         -79.22          82.72          168.1           87.8          153.9
    0.4321              -27.59          23.02          38.34          49.88         -2.233         -12.72         -79.19          82.71          168.0          87.77          153.9
    0.4591               -27.6          23.03          38.33          49.88         -2.231         -12.72         -79.15          82.71          167.9          87.73          153.9
    0.4861              -27.62          23.03          38.31          49.87         -2.228         -12.71         -79.11          82.71          167.8           87.7          153.8
    0.5131              -27.64          23.04           38.3          49.87         -2.225          -12.7         -79.07          82.71          167.7          87.66          153.8
    0.5402              -27.66          23.05          38.29          49.87         -2.221         -12.69         -79.03           82.7          167.5          87.62          153.7
    0.5672              -27.68          23.05          38.27          49.86         -2.218         -12.68         -78.97           82.7          167.4          87.57          153.6
    0.5942               -27.7          23.06          38.25          49.86         -2.214         -12.67         -78.92          82.69          167.2          87.52          153.6
    0.6212              -27.73          23.07          38.23          49.85         -2.209         -12.65         -78.86          82.69          167.0          87.46          153.5
    0.6482              -27.76          23.08           38.2          49.84         -2.204         -12.64         -78.79          82.68          166.8          87.39          153.4
    0.6752              -27.79          23.09          38.18          49.84         -2.199         -12.62         -78.71          82.68          166.5          87.32          153.3
    0.7022              -27.83           23.1          38.15          49.83         -2.192         -12.61         -78.62          82.67          166.2          87.24          153.2
